# xmcd
#
# Track frame offsets:
#	150
#	14033
#	24646
#	38274
#	50227
#	63528
#	74976
#	84778
#	98557
#	109805
#	121980
#	132637
#	143807
#	156152
#	169459
#	183644
#	198060
#	210928
#	224163
#	235619
#	250871
#	259788
#	273166
#	282625
#	293698
#	309900
#	323238
#
# Disc length: 4444 seconds
#
# Revision: 1
# Processed by: cddbd v1.5.2PL0 Copyright (c) Steve Scherf et al.
# Submitted via: EZCDAudioConverter 4.0.5.1
#
DISCID=9b115a1b
DTITLE=Mary Wells - Something New - Motown Lost and Found
DYEAR=2012
DGENRE=R&B
TTITLE0=(You Can) Depend On Me
TTITLE1=Why Do You Want To Let Me Go
TTITLE2=Money (That's What I Want)
TTITLE3=Is It Me Or Is It You
TTITLE4=I've Got A Story
TTITLE5=Guarantee (For A Lifetime)
TTITLE6=To Lose You
TTITLE7=Cinderella (It's Twelve O'Clock)
TTITLE8=When Your Lover Comes Back
TTITLE9=I Want You 'Round
TTITLE10=My Heart Is Like A Clock
TTITLE11=Goodbye And Good Luck
TTITLE12=Forgive And Forget
TTITLE13=I'll Be Available
TTITLE14=Can You Fix It (My Broken Heart)
TTITLE15=Have A Little Patience (And Wait)
TTITLE16=Free From Your Spell
TTITLE17=My World Of Dreams
TTITLE18=Your Loss, My Gain (You Lost The Sweetest Boy)
TTITLE19=Strange Love (Graystone version)
TTITLE20=Prove It
TTITLE21=One Block From Heaven
TTITLE22=That's Why I Love You (Like I Do)
TTITLE23=Drop In The Bucket
TTITLE24=Everybody Needs Love
TTITLE25=Honey Boy
TTITLE26=When I'm Gone
EXTD=
EXTT0=
EXTT1=
EXTT2=
EXTT3=
EXTT4=
EXTT5=
EXTT6=
EXTT7=
EXTT8=
EXTT9=
EXTT10=
EXTT11=
EXTT12=
EXTT13=
EXTT14=
EXTT15=
EXTT16=
EXTT17=
EXTT18=
EXTT19=
EXTT20=
EXTT21=
EXTT22=
EXTT23=
EXTT24=
EXTT25=
EXTT26=
PLAYORDER=
